<?xml version="1.0" encoding="utf-8"?>
<!-- Generator: Adobe Illustrator 24.2.0, SVG Export Plug-In . SVG Version: 6.00 Build 0)  -->
<svg version="1.1" id="レイヤー_2" xmlns="http://www.w3.org/2000/svg" xmlns:xlink="http://www.w3.org/1999/xlink" x="0px"
	 y="0px" viewBox="0 0 210 50" style="enable-background:new 0 0 210 50;" xml:space="preserve">
<style type="text/css">
	.st0{fill:#FFFF00;}
	.st1{fill:#FFFFFF;}
	.st2{fill:none;stroke:#FFFFFF;stroke-width:0.5687;stroke-miterlimit:10;}
	.st3{fill:#FFE900;stroke:#3F457C;stroke-width:0.7969;stroke-linecap:round;stroke-linejoin:round;stroke-miterlimit:10;}
	.st4{fill:#FFE900;stroke:#3F457C;stroke-width:0.4752;stroke-linecap:round;stroke-linejoin:round;stroke-miterlimit:10;}
	.st5{fill:none;}
</style>
<g>
	<g>
		<path class="st0" d="M28,42.9c0,0.1-0.1,0.1-0.2,0.1c-0.1,0.8-0.3,1.6-0.5,2.2c-0.1-0.1-0.4-0.2-0.6-0.3c0.2-0.5,0.4-1.4,0.5-2.2
			L28,42.9z M29.8,42.5c0-0.1-0.1-0.3-0.1-0.4l-0.8,0v3.8h-0.7v-3.7c-0.4,0-0.8,0-1.1,0.1c0,0.1-0.1,0.1-0.1,0.1l-0.2-0.9l0.6,0
			c0.1-0.2,0.3-0.4,0.5-0.7c-0.2-0.4-0.7-0.9-1.1-1.3l0.4-0.6l0.2,0.2c0.3-0.5,0.6-1.2,0.7-1.7l0.8,0.4c0,0.1-0.1,0.1-0.2,0.1
			c-0.2,0.5-0.6,1.2-0.9,1.7c0.2,0.2,0.3,0.4,0.4,0.5c0.3-0.6,0.7-1.1,0.9-1.6l0.8,0.4c0,0.1-0.1,0.1-0.2,0.1
			c-0.4,0.7-1,1.7-1.6,2.4l1.2,0c-0.1-0.3-0.3-0.5-0.4-0.8l0.6-0.3c0.4,0.6,0.8,1.3,0.9,1.8L29.8,42.5z M29.7,42.6
			c0.2,0.5,0.4,1.2,0.5,1.7c-0.2,0.1-0.3,0.1-0.6,0.2c-0.1-0.5-0.3-1.2-0.5-1.7L29.7,42.6z M34.1,44.8h0.6v0.8h-4.9v-0.8h0.8v-7h3.5
			V44.8z M33.3,38.6h-1.9v1.5h1.9V38.6z M33.3,42.5v-1.5h-1.9v1.5H33.3z M31.3,43.2v1.6h1.9v-1.6H31.3z"/>
		<path class="st0" d="M37,40.5c-0.4,0.3-0.9,0.7-1.4,0.9c-0.1-0.2-0.3-0.5-0.5-0.7c1.5-0.8,2.9-2.2,3.5-3.3l1.1,0.1
			c0,0.1-0.1,0.1-0.2,0.2c0.8,1.2,2.3,2.4,3.6,3c-0.2,0.2-0.4,0.5-0.5,0.8c-0.4-0.3-0.9-0.6-1.4-0.9v0.7H37V40.5z M36.5,45.9v-3.7
			h5.2v3.7h-0.8v-0.4h-3.6v0.4H36.5z M41.1,40.4c-0.8-0.6-1.5-1.4-2-2.1c-0.4,0.7-1.1,1.4-1.9,2.1H41.1z M40.9,42.9h-3.6v1.8h3.6
			V42.9z"/>
		<path class="st0" d="M50.2,44.3h-1.6c0.8,0.3,1.9,0.7,2.5,1l-0.7,0.6c-0.6-0.3-1.8-0.8-2.7-1.1l0.6-0.5h-2.5l0.6,0.4
			c0,0-0.1,0-0.2,0.1c-0.5,0.4-1.6,0.8-2.4,1.1c-0.1-0.2-0.4-0.5-0.6-0.6c0.8-0.2,1.8-0.6,2.3-0.9h-1.5v-4h6V44.3z M49.8,37.7v2.2
			h-5.1v-2.2H49.8z M45,40.9v0.5h4.4v-0.5H45z M45,42v0.5h4.4V42H45z M45,43.2v0.5h4.4v-0.5H45z M48.9,39.2v-0.8h-3.5v0.8H48.9z"/>
		<path class="st0" d="M51.5,39.6V39h3.1v0.7H51.5z M54.3,42.8v2.7h-1.8v0.4h-0.7v-3.1H54.3z M54.2,40.2v0.7h-2.4v-0.7H54.2z
			 M51.9,42.2v-0.7h2.4v0.7H51.9z M54.2,37.7v0.7h-2.3v-0.7H54.2z M53.6,43.4h-1.1v1.3h1.1V43.4z M57.5,44.7h1.8v0.8h-4.7v-0.8h0.6
			v-4.5l0.9,0.1c0,0.1-0.1,0.1-0.2,0.1v4.3h0.8v-6h-1.9v-0.8h4.3v0.8h-1.6v2.4h1.6v0.8h-1.6V44.7z"/>
		<path class="st0" d="M62.3,41.6c0,0.5-0.3,0.8-0.7,0.8c-0.4,0-0.7-0.4-0.7-0.8s0.3-0.8,0.7-0.8C62,40.8,62.3,41.2,62.3,41.6z"/>
		<path class="st0" d="M67.4,41.5v-2h-2.5v1.2h-0.7v-1.8h3.2v-0.5h-2.7v-0.6h6.2v0.6h-2.7v0.5h3.3v1.8h-0.7v-1.2h-2.5v2H67.4z
			 M68.1,44.6c0,0.5,0,0.5,0.6,0.5h1.8c0.4,0,0.5-0.2,0.6-1c0.2,0.1,0.5,0.2,0.7,0.3c-0.1,1.1-0.3,1.4-1.2,1.4h-1.9
			c-1.2,0-1.3-0.3-1.3-1.2h-1.7V45H65v-3.2h5.8v2.8H68.1z M65.1,41.3v-0.5H67v0.5H65.1z M65.3,39.9H67v0.5h-1.7V39.9z M67.4,42.4
			h-1.7v0.5h1.7V42.4z M65.7,44h1.7v-0.5h-1.7V44z M69.9,42.9v-0.5h-1.8v0.5H69.9z M68.1,44h1.8v-0.5h-1.8V44z M68.6,39.9h1.7v0.5
			h-1.7V39.9z M68.6,41.3v-0.5h1.9v0.5H68.6z"/>
		<path class="st0" d="M80,41.4v0.9h-3.4v2.5c0,0.9-0.3,1.1-2.2,1.1c0-0.3-0.2-0.6-0.3-0.9c0.4,0,0.8,0,1,0c0.6,0,0.6,0,0.6-0.2
			v-2.5h-3.4v-0.9h3.4V40l0.4,0c0.5-0.3,1.1-0.7,1.5-1.1h-4.5V38h5.4l0.1-0.1l0.7,0.5c0,0.1-0.1,0.1-0.2,0.1
			c-0.7,0.7-1.7,1.6-2.7,2.1v0.8H80z"/>
		<path class="st0" d="M87.9,39.2c0,0.1-0.1,0.1-0.1,0.1c-0.7,1.2-2,2.5-3.2,3.5c0.6,0.5,1.2,1.1,1.6,1.6l-0.7,0.7
			c-0.9-1.1-2.5-2.5-3.8-3.3l0.6-0.6c0.5,0.3,1.1,0.8,1.7,1.2c1-0.8,2-1.8,2.6-2.7h-5.7v-0.9h6.4l0.1-0.1L87.9,39.2z"/>
		<path class="st0" d="M94.8,39.8c0,0.1-0.1,0.1-0.2,0.1c-0.5,0.7-1.3,1.5-2,2.1l0.1,0c0,0.1-0.1,0.1-0.2,0.1v3.4h-0.8v-2.9
			c-0.8,0.6-1.8,1.2-2.7,1.6c0-0.1-0.5-0.6-0.5-0.7c1.8-0.7,3.7-2,4.8-3.3h-3.9v-0.8h4.7l0.1-0.1L94.8,39.8z M93.2,39.3
			c-0.7-0.4-1.8-0.8-2.7-1.1l0.4-0.7c0.9,0.2,1.9,0.6,2.7,1L93.2,39.3z M93.5,41.9c0.8,0.5,1.7,1.1,2.3,1.6l-0.6,0.7
			c-0.6-0.5-1.5-1.2-2.3-1.7L93.5,41.9z"/>
		<path class="st0" d="M96.7,41h6.9v0.9h-6.6c0,0.1-0.2,0.2-0.3,0.2L96.7,41z"/>
		<path class="st0" d="M105,39.9c0.5,0.2,1.2,0.6,1.6,0.9l-0.5,0.7c-0.3-0.3-1-0.7-1.5-1L105,39.9z M104.8,45.2
			c0.4-0.7,1-1.9,1.5-2.9l0.6,0.5c-0.4,1-0.9,2-1.3,2.7c0,0,0,0.1,0,0.1s0,0.1,0,0.1L104.8,45.2z M105.5,37.5
			c0.5,0.2,1.2,0.6,1.5,0.9l-0.5,0.7c-0.3-0.3-1-0.8-1.5-1L105.5,37.5z M112.4,42.4h-2.2c0.4,1.2,1.2,2.2,2.3,2.7
			c-0.2,0.2-0.4,0.5-0.5,0.7c-1.2-0.6-2-1.7-2.4-3.1c-0.3,1.2-0.9,2.3-2.4,3.2c-0.1-0.2-0.4-0.5-0.6-0.6c1.4-0.8,2-1.8,2.2-2.8h-1.8
			v-0.8h2c0-0.4,0-0.7,0-1.1v-0.8h-1.5v-0.8h1.5v-1.5l1,0.1c0,0.1-0.1,0.1-0.2,0.1v1.3h2v2.7h0.7V42.4z M109.7,39.7v0.9
			c0,0.4,0,0.7,0,1.1h1.2v-1.9H109.7z"/>
		<path class="st0" d="M113.3,39.9c0.5,0.2,1.2,0.6,1.6,0.9l-0.5,0.7c-0.3-0.3-1-0.7-1.5-1L113.3,39.9z M113.1,45.2
			c0.4-0.7,1-1.9,1.5-2.9l0.6,0.5c-0.4,1-0.9,2-1.3,2.7c0,0,0,0.1,0,0.1s0,0.1,0,0.1L113.1,45.2z M113.8,37.5
			c0.5,0.2,1.2,0.6,1.5,0.9l-0.5,0.7c-0.3-0.3-1-0.8-1.5-1L113.8,37.5z M119.5,39.1l0.4,0.1c0,0.1-0.1,0.1-0.2,0.1
			c-0.2,0.5-0.6,0.8-1,1.2c0.6,0.3,1.3,0.4,2.1,0.6c-0.2,0.2-0.4,0.5-0.4,0.8l-0.3-0.1c0,0.1-0.1,0.1-0.2,0.1v3.9h-0.8v-1.6h-2.6
			c-0.2,0.6-0.5,1.1-1,1.6c-0.1-0.1-0.4-0.4-0.6-0.5c1-0.7,1.1-1.9,1.1-2.6v-1c-0.2,0.1-0.4,0.1-0.6,0.1c-0.1-0.2-0.2-0.5-0.4-0.7
			c0.8-0.1,1.6-0.4,2.2-0.7c-0.4-0.3-0.8-0.8-1.1-1.3l0.3-0.1h-1v-0.8h2.2v-0.9l1,0.1c0,0.1-0.1,0.1-0.2,0.1v0.7h2.3v0.8H119.5z
			 M119.1,41.7l0.9,0.1v0c-0.8-0.2-1.5-0.4-2.1-0.8c-0.5,0.3-1.1,0.5-1.8,0.7l0.8,0.1c0,0.1-0.1,0.1-0.2,0.1v0.3h2.4V41.7z
			 M116.8,42.9c0,0.2,0,0.4,0,0.7h2.4v-0.7H116.8z M116.9,39.1c0.3,0.4,0.7,0.7,1.1,1c0.4-0.3,0.7-0.6,0.9-1H116.9z"/>
		<path class="st0" d="M125.7,42.5c-0.5,0.1-1.2,0.1-1.9,0.1c0,0.5,0,0.5,0,0.7c0,1.2,0.6,1.4,1.5,1.4c0.3,0,0.7-0.1,1-0.2
			c0.5-0.1,0.7-0.5,0.7-1c0-0.5-0.2-1-0.6-1.6c0.2-0.1,0.6-0.2,0.8-0.3c0.5,0.7,0.7,1.4,0.7,2c0,1.8-2.2,1.8-2.7,1.8
			c-1.2,0-2.3-0.3-2.3-2.3c0-0.2,0-0.4,0-0.7c-0.6,0-1.8-0.1-1.8-1.1c0-0.4,0.2-0.8,0.7-1.2l0.6,0.3c-0.3,0.2-0.5,0.5-0.5,0.7
			c0,0.4,0.5,0.4,1.1,0.4c0-0.5,0.1-1.2,0.2-1.8c-0.6-0.1-1.2-0.2-1.7-0.5l0.2-0.8c0.4,0.2,1,0.4,1.6,0.5c0.1-0.5,0.1-1.1,0.2-1.5
			l1.1,0.1c0,0.1-0.1,0.2-0.3,0.2c-0.1,0.4-0.1,0.8-0.2,1.3c0.2,0,0.5,0,0.7,0c0.3,0,0.6,0,0.8,0l0,0.8c-0.2,0-0.5,0-0.8,0
			s-0.6,0-0.8,0c-0.1,0.6-0.1,1.2-0.2,1.8c0.6,0,1.3-0.1,1.8-0.1L125.7,42.5z"/>
		<path class="st0" d="M134.3,38.7c0,0.1-0.1,0.1-0.1,0.1c-0.5,1.2-0.9,2.1-1.6,3c0.9,0.7,2.2,2,2.9,2.9l-0.7,0.7
			c-0.7-0.9-1.9-2.2-2.7-2.9c-0.8,1-1.9,2.2-3.1,2.9c-0.1-0.2-0.4-0.5-0.6-0.7c2.2-1.3,3.9-3.6,4.7-5.5h-3.9v-0.9h4.4l0.2-0.1
			L134.3,38.7z"/>
		<path class="st0" d="M143.3,39.2c0,0.1-0.1,0.1-0.2,0.1c-0.7,1.2-2,2.5-3.2,3.5c0.6,0.5,1.2,1.1,1.6,1.6l-0.7,0.7
			c-0.9-1.1-2.5-2.5-3.8-3.3l0.6-0.6c0.5,0.3,1.1,0.8,1.7,1.2c1-0.8,2-1.8,2.6-2.7h-5.7v-0.9h6.4l0.1-0.1L143.3,39.2z"/>
		<path class="st0" d="M146.3,41.7c-0.4,1-0.9,2-1.5,2.6l-0.7-0.5c0.6-0.6,1.1-1.4,1.4-2.5L146.3,41.7z M148.1,40.4v4
			c0,1.2-0.8,1.2-2.1,1.2c0-0.2-0.1-0.6-0.2-0.8c0.2,0,0.6,0,0.8,0c0.5,0,0.7,0,0.7-0.3v-4h-2.7v-0.9h2.7v-1.8l1.1,0.1
			c0,0.1-0.1,0.2-0.2,0.2v1.5h2.7v0.9H148.1z M149.6,41.4c0.6,0.7,1.3,1.8,1.7,2.5l-0.7,0.5c-0.4-0.8-1.1-2-1.6-2.6L149.6,41.4z"/>
		<path class="st0" d="M159,38.5c0,0.1-0.1,0.1-0.1,0.1c-0.4,1.1-1.1,2.2-1.9,2.9c-0.2-0.2-0.5-0.4-0.7-0.5c0.6-0.5,1.2-1.3,1.4-2
			h-5.7v-0.9h6.1l0.1-0.1L159,38.5z M155.8,40.2c0,0.1-0.1,0.2-0.2,0.2c-0.2,2-0.9,4.1-2.6,5.2c-0.2-0.2-0.5-0.4-0.7-0.6
			c1.6-1,2.3-2.8,2.4-4.9L155.8,40.2z"/>
		<path class="st0" d="M159.6,38.8h5.2l0.1,0l0.8,0.6c0,0-0.1,0.1-0.1,0.1c-0.7,3.4-2.1,5.1-4.7,6.1c-0.1-0.2-0.4-0.6-0.5-0.7
			c2.3-0.9,3.7-2.5,4.2-5.2h-4.9V38.8z M165.9,37.2c0.5,0,0.9,0.4,0.9,1s-0.4,1-0.9,1c-0.5,0-0.9-0.4-0.9-1
			C165,37.6,165.4,37.2,165.9,37.2z M166.5,38.2c0-0.4-0.3-0.7-0.6-0.7c-0.3,0-0.6,0.3-0.6,0.7c0,0.4,0.3,0.7,0.6,0.7
			C166.3,38.8,166.5,38.5,166.5,38.2z"/>
		<path class="st0" d="M167.7,42.7v-4.4l1.1,0.1c0,0.1-0.1,0.2-0.2,0.2v4.2H167.7z M172.5,37.9c0,0.1-0.1,0.2-0.2,0.2v2.8
			c0,1.9-0.6,3.7-3,4.7c-0.1-0.2-0.4-0.5-0.6-0.7c2.2-0.9,2.7-2.4,2.7-4v-3.1L172.5,37.9z"/>
		<path class="st0" d="M173.5,38.6c0.2,0,0.6,0,0.8,0c0.8-0.1,4.7-0.4,6-0.4l0,1c-0.7,0-1.1,0-1.8,0.5c-1.1,0.7-2.2,2.1-2.2,3.2
			c0,1.1,0.8,1.8,2.8,2.1l-0.4,0.9c-2.4-0.3-3.3-1.4-3.3-2.9c0-1.2,1-2.7,2.4-3.6c-1,0.1-3.2,0.3-4.1,0.4c0,0.1-0.1,0.1-0.2,0.1
			L173.5,38.6z M179,40.5c0.4,0.3,0.8,0.8,1.1,1.2l-0.4,0.3c-0.2-0.4-0.7-1-1-1.2L179,40.5z M179.9,39.7c0.4,0.3,0.8,0.8,1.1,1.2
			l-0.4,0.4c-0.2-0.3-0.7-0.9-1-1.2L179.9,39.7z"/>
		<path class="st0" d="M181.2,44.3c0-0.5,0.4-1,0.9-1c0.5,0,0.8,0.4,0.8,0.9c0,0.6-0.4,1-0.9,1C181.4,45.2,181.2,44.7,181.2,44.3z
			 M182.8,42.7h-1.1l0.6-4.6h1.5L182.8,42.7z"/>
	</g>
</g>
<g>
	<g>
		<path class="st1" d="M160.4,20.7c-0.1,0.1-0.2,0.2-0.4,0.2c-1.2,4.1-2.9,6.5-5.2,6.5c-1.4,0-2.2-1.1-1.9-3.1
			c0.5-3.1,3.6-5.3,6.8-5.3c3.6,0,5.1,2,4.7,4.6c-0.5,2.8-2.3,4.3-5.7,5.1c-0.2-0.4-0.4-0.9-0.8-1.3c3-0.5,4.4-1.8,4.7-3.8
			c0.3-1.9-0.9-3.2-3.2-3.2c-0.2,0-0.4,0-0.7,0L160.4,20.7z M158.4,20.5c-2,0.4-3.5,2-3.8,3.7c-0.2,1,0,1.7,0.6,1.7
			C156.4,25.9,157.7,23.3,158.4,20.5z"/>
		<path class="st1" d="M174.6,28.1c-1.1,0.2-2.6,0.2-3.9,0.2c-1.1,0-2.1-0.1-2.6-0.2c-1.6-0.3-2.1-1.4-1.9-2.5
			c0.2-0.9,0.8-1.9,1.6-2.5l1.3,0.6c-0.7,0.5-1.1,1.1-1.2,1.7c-0.3,1.4,1.6,1.4,2.9,1.4c1.3,0,2.8-0.1,4-0.3L174.6,28.1z
			 M169.4,21.8c0.5-0.3,1.3-0.8,1.8-1.1l0,0c-0.7,0.1-2.5,0.1-3.6,0.1c0.1-0.4,0.2-1.1,0.2-1.5c0.2,0,0.5,0,0.9,0
			c2.4,0,4.6,0,6.6-0.4l-0.1,1.5c-1.9,0.3-3.6,1.3-4.5,1.9L169.4,21.8z M175,23.9c-0.2-0.4-0.9-1.2-1.3-1.6l0.8-0.6
			c0.5,0.4,1.1,1.1,1.3,1.5L175,23.9z M176.7,22.6c-0.2-0.4-0.9-1.2-1.3-1.5l0.8-0.6c0.5,0.4,1.1,1.1,1.3,1.5L176.7,22.6z"/>
		<path class="st1" d="M189.6,26.5h-4c1,0.6,2.6,1.1,4.1,1.4c-0.4,0.3-0.9,0.9-1.2,1.2c-1.5-0.4-3.1-1.1-4.1-2l-0.4,2.2h-1.5
			l0.4-2.1c-1.4,0.9-3.1,1.6-4.8,2c-0.1-0.3-0.5-0.9-0.7-1.2c1.6-0.3,3.3-0.8,4.5-1.4h-3.9l0.2-1.2h5l0.1-0.8
			c-1.1,0.2-2.4,0.4-4.1,0.5c0-0.3-0.1-0.8-0.3-1.1c1.8-0.1,3.1-0.2,4.1-0.4c-0.3-0.1-0.7-0.2-1-0.2l-0.2,0.2l-1.4-0.4
			c0.3-0.3,0.8-0.7,1.2-1.1h-2.8l0.2-1.1h3.7c0.3-0.3,0.6-0.6,0.9-0.9H181l-0.1,0.7h-1.4l0.3-1.9h4.5l0.1-0.8l1.9,0.1
			c0,0.1-0.1,0.2-0.4,0.2l-0.1,0.5h4.6l-0.3,1.9h-1.5l0.1-0.7h-4.9l1.3,0.4c-0.1,0.1-0.2,0.1-0.4,0.1l-0.4,0.4h6l-0.2,1.1h-2.3
			l-0.1,0c-0.4,0.5-0.8,0.9-1.3,1.3c1,0.3,2,0.6,2.7,0.8l-1.1,1c-0.7-0.3-1.9-0.7-3.1-1c-0.5,0.2-1,0.3-1.6,0.5l1.7,0.1
			c0,0.1-0.1,0.2-0.4,0.2l-0.1,0.5h5.1L189.6,26.5z M183.4,21.9l-0.4,0.4c0.7,0.1,1.4,0.3,2.1,0.5c0.5-0.3,0.8-0.6,1.1-0.9H183.4z"
			/>
		<path class="st1" d="M203.6,19.9l-1.4,7.7c-0.3,1.5-0.9,1.7-3.5,1.7c0-0.4-0.1-1.1-0.2-1.4c0.4,0,0.9,0,1.3,0c0.8,0,0.9,0,0.9-0.3
			l1.1-6.3h-3.1c-0.1,0.4-0.2,0.8-0.4,1.2c0.9,1,2.1,2.2,2.7,3.1l-1.5,0.9c-0.4-0.7-1.2-1.7-2-2.5c-0.7,1-1.7,2-3.3,2.8
			c-0.2-0.3-0.5-0.7-0.8-1l-0.6,3.4h-1.5l1.6-9.3h4.4l0.4-2l1.9,0.1c0,0.1-0.1,0.2-0.4,0.2l-0.3,1.7H203.6z M194.3,21.3l-0.8,4.3
			c2.5-1.2,3.3-2.9,3.6-4.3H194.3z"/>
	</g>
</g>
<g>
	<polygon class="st1" points="106.6,13.8 89.5,13.9 90.1,10.1 109.2,10 	"/>
	<polygon class="st1" points="103.4,21.4 99.4,21.4 105.2,10 109.2,10 	"/>
	<polygon class="st1" points="93.9,29 89.9,29.1 95.7,17.6 99.7,17.6 	"/>
	<polygon class="st1" points="127.6,13.7 113.3,13.7 113.9,9.9 130.1,9.9 	"/>
	<polygon class="st1" points="120.5,28.9 116.5,28.9 126.1,9.9 130.1,9.9 	"/>
	<path class="st1" d="M129.1,4.5c-2.1,0-4.1,1.7-4.5,3.8s1,3.8,3.2,3.8c2.1,0,4.1-1.7,4.5-3.8C132.6,6.2,131.2,4.5,129.1,4.5z
		 M128.3,9.3c-0.5,0-0.9-0.4-0.8-0.9s0.6-1,1.1-1c0.5,0,0.9,0.4,0.8,0.9C129.3,8.9,128.8,9.3,128.3,9.3z"/>
	<polygon class="st1" points="137.7,21.2 133.9,21.2 135.9,9.8 139.7,9.8 	"/>
	<polygon class="st1" points="147.3,9.8 145.3,21.2 141.5,28.8 145.3,28.8 149.1,21.1 149.1,21.1 151.1,9.7 	"/>
	<g>
		<path class="st1" d="M39.5,20.7l-5.2,0c0.3,2.8,1.6,4.9,4.4,5.9c-0.5,0.4-1.2,1.1-1.5,1.6c-2.6-1-3.9-2.9-4.5-5.5
			c-1.2,2.2-3.1,4.2-6.5,5.5c-0.2-0.5-0.6-1.1-1-1.4c3.8-1.4,5.5-3.6,6.5-6.1l-5.1,0l0.3-1.7l5.4,0c0.3-1.2,0.5-2.4,0.8-3.7l2.3,0.1
			c-0.1,0.1-0.2,0.2-0.5,0.3c-0.2,1-0.4,2.1-0.7,3.2l5.7,0L39.5,20.7z"/>
		<path class="st1" d="M54.2,23L54,24.5l-5.6,0L48,26.3c-0.3,1.5-1.1,1.8-4.1,1.8c0-0.5-0.2-1.1-0.4-1.6c0.6,0,1.2,0,1.7,0
			c0.9,0,1,0,1-0.3l0.3-1.7l-5.6,0l0.3-1.5l5.6,0l0.2-0.9l0.8,0c0.4-0.2,0.8-0.5,1.2-0.8l-4.9,0l0.3-1.4l6.6,0l0.3-0.1l1.2,0.7
			c-0.1,0.1-0.2,0.2-0.4,0.2c-0.9,0.7-2.1,1.6-3.3,2.3L54.2,23z M43.9,18.9l-0.3,1.9l-1.6,0l0.6-3.3l1.9,0c-0.2-0.5-0.5-1-0.8-1.4
			l1.6-0.6c0.4,0.6,0.9,1.3,1.1,1.9l-0.4,0.2l2.1,0c-0.1-0.5-0.4-1.2-0.6-1.7l1.6-0.5c0.4,0.6,0.7,1.5,0.8,2.1l-0.5,0.2l1.9,0
			c0.6-0.6,1.3-1.4,1.7-2.1c1.8,0.6,1.9,0.7,1.9,0.7c-0.1,0.1-0.3,0.1-0.4,0.1c-0.3,0.4-0.7,0.8-1.2,1.3l1.9,0l-0.6,3.3l-1.7,0
			l0.3-1.9L43.9,18.9z"/>
		<path class="st1" d="M63.3,26l5.7,0l-0.3,1.6l-13.1,0.1l0.3-1.6l5.6,0l0.5-2.7l-4,0l0.3-1.6l4,0l0.4-2.4l-3,0
			c-0.6,0.9-1.2,1.6-1.9,2.3c-0.3-0.3-0.9-0.8-1.3-1c1.3-1.2,2.6-3.3,3.5-5.2l2,0.5c-0.1,0.1-0.2,0.2-0.4,0.2
			c-0.3,0.6-0.6,1.1-0.9,1.7l2.3,0l0.5-2.5l2.2,0.1c0,0.1-0.2,0.2-0.4,0.3l-0.4,2.1l5,0l-0.3,1.6l-5,0L64,21.7l4.4,0l-0.3,1.6
			l-4.4,0L63.3,26z"/>
		<path class="st1" d="M81.2,17.8c-0.8,1.4-2,2.5-4.2,3.2c-0.1-0.3-0.3-0.7-0.5-0.9l-1.4,0l-1.4,7.9l-1.7,0l1.4-7.9l-1.6,0l0.3-1.5
			l1.6,0l0.6-3.4l2,0.1c0,0.1-0.2,0.2-0.4,0.3l-0.6,3.1l1.5,0l-0.2,1.2c1.5-0.5,2.4-1.2,3-2l-2.2,0l0.2-1.3l2.6,0
			c0.1-0.4,0.3-0.9,0.4-1.3l1.9,0.1c0,0.1-0.2,0.2-0.4,0.2c-0.1,0.3-0.2,0.7-0.3,1l2.1,0l0.3,0l0.9,0.1c0,0.1-0.1,0.3-0.1,0.4
			c-0.9,3.6-1.2,3.8-3.4,3.9c-0.2,0-0.4,0-0.7,0c0-0.4,0-1-0.2-1.4c0.6,0.1,1.1,0.1,1.3,0.1c0.2,0,0.3,0,0.5-0.1
			c0.2-0.2,0.4-0.6,0.7-1.6L81.2,17.8z M79,22.2l0.7,0c0,0.1-0.1,0.3-0.1,0.4c-0.6,3.1-0.9,4.3-1.3,4.7c-0.4,0.5-0.8,0.5-2.1,0.5
			c0-0.4,0-0.9-0.1-1.3c0.3,0,0.6,0,0.8,0c0.1,0,0.2,0,0.4-0.2c0.2-0.2,0.4-1,0.8-3.1l-0.7,0c-0.5,1.8-1.3,3.3-2.7,4.5
			c-0.1-0.3-0.5-0.8-0.8-1c1-0.9,1.6-2.1,2.1-3.5l-1.1,0l0.2-1.2l1.2,0c0.1-0.4,0.2-0.8,0.3-1.3l1.8,0.1c0,0.1-0.2,0.2-0.4,0.2
			l-0.2,0.9l0.9,0L79,22.2z M83.9,22.2l0.8,0c0,0.1-0.1,0.3-0.1,0.4c-0.6,3.1-0.9,4.3-1.3,4.7c-0.5,0.5-0.9,0.5-2.1,0.5
			c0-0.4,0-0.9-0.1-1.3c0.4,0,0.6,0,0.8,0c0.1,0,0.3,0,0.4-0.2c0.2-0.2,0.4-1,0.8-3l-0.7,0c-0.6,1.8-1.4,3.3-2.8,4.5
			c-0.1-0.3-0.5-0.8-0.8-1c1.1-0.8,1.7-2,2.1-3.5l-1,0l0.2-1.2l1.1,0c0.1-0.4,0.2-0.8,0.3-1.3l1.8,0.1c0,0.1-0.2,0.2-0.4,0.2
			l-0.2,0.9L83.9,22.2z"/>
	</g>
</g>
<line class="st2" x1="25.8" y1="28.1" x2="205" y2="28.1"/>
<path id="_x3C_パス_x3E__1_" class="st3" d="M193.5,37.3c-2,0.4-2.4,1.5-2.8,3.9h0c-0.6-3.2-1-3.4-2.8-4l0,0
	c2.5-0.9,2.6-1.9,2.9-3.8l0,0C191.1,35.3,191,36.4,193.5,37.3"/>
<path id="_x3C_パス_x3E__2_" class="st4" d="M199.7,41.6c-1.2,0.2-1.4,0.9-1.7,2.3h0c-0.4-1.9-0.6-2-1.7-2.4l0,0
	c1.5-0.5,1.5-1.1,1.7-2.3l0,0C198.3,40.4,198.2,41.1,199.7,41.6"/>
<g>
	<rect x="2.9" y="7.4" class="st5" width="20" height="33"/>
	<g>
		<g>
			<g>
				<path class="st1" d="M11.7,25.3c0,1.4,1.1,2.5,2.5,2.5c1.4,0,2.5-1.1,2.5-2.5c0-1.4-1.1-2.5-2.5-2.5
					C12.8,22.8,11.7,23.9,11.7,25.3z M16.5,25.3c0,1.3-1,2.3-2.3,2.3c-1.3,0-2.3-1-2.3-2.3c0-1.3,1-2.3,2.3-2.3
					C15.5,23,16.5,24.1,16.5,25.3z M20.3,18.1c0-2.3-1.9-4.1-4.1-4.1c-0.6,0-1.1,0.1-1.6,0.3c0-0.1,0.1-0.1,0.1-0.2v0
					c0.3-0.7,0.5-1.4,0.4-2.2c0-0.1,0-0.1-0.1-0.1c-0.1,0-0.1,0-0.2,0c0,0-1.6,0.6-1.6,0.6c-0.1,0-0.1,0.1-0.1,0.2
					c0,0.3-0.1,0.6-0.2,0.8c-0.3,0.7-0.9,1.2-1.6,1.4c-0.7,0.3-1.5,0.2-2.1-0.1C8.6,14.3,8,13.7,7.8,13c-0.3-0.7-0.2-1.5,0.1-2.1
					c0.3-0.7,0.9-1.2,1.6-1.4c0.7-0.3,1.5-0.2,2.1,0.1c0.2,0.1,0.4,0.2,0.6,0.4c0.1,0,0.1,0.1,0.2,0c0,0,1.6-0.6,1.6-0.6
					c0.1,0,0.1-0.1,0.1-0.1c0-0.1,0-0.1,0-0.2c-0.5-0.6-1-1-1.7-1.3C11.3,7.2,10,7.2,8.8,7.6c-1.2,0.4-2.1,1.3-2.7,2.4
					c-0.5,1.1-0.6,2.4-0.2,3.6c0.4,1.2,1.3,2.1,2.4,2.7c0.1,0,0.1,0.1,0.2,0.1c-1.5,0.5-2.5,1.9-2.5,3.5c0,2.1,1.7,3.7,3.7,3.7
					c0.4,0,0.8-0.1,1.1-0.2c-0.3,0.6-0.5,1.2-0.5,1.9v5c0,0.1,0.1,0.2,0.2,0.2h1.2c0.1,0,0.2-0.1,0.2-0.2c0,0,0-2,0-2c0,0,0,0,0.1,0
					c0.7,0.5,1.4,0.7,2.2,0.7c2.1,0,3.8-1.7,3.8-3.8c0-1.3-0.7-2.4-1.7-3.1C18.6,22.1,20.3,20.3,20.3,18.1z M8.5,16.1
					c-1.1-0.5-1.9-1.4-2.3-2.5c-0.4-1.1-0.4-2.3,0.1-3.4c0.5-1.1,1.4-1.9,2.5-2.3C10,7.4,11.2,7.5,12.3,8c0.6,0.3,1.1,0.7,1.6,1.2
					c-0.3,0.1-1.3,0.5-1.5,0.5c-0.2-0.2-0.4-0.3-0.7-0.4C11,9,10.1,8.9,9.4,9.2C8.6,9.5,8,10.1,7.7,10.8c-0.3,0.7-0.4,1.6-0.1,2.3
					c0.3,0.8,0.8,1.4,1.6,1.7c0.7,0.3,1.6,0.4,2.3,0.1c0.8-0.3,1.4-0.8,1.7-1.6c0.1-0.3,0.2-0.6,0.3-0.9c0.2-0.1,1.2-0.4,1.5-0.5
					c0,0,0,0.1,0,0.1c0,0.7-0.1,1.3-0.4,1.9C13.4,16.2,10.8,17.2,8.5,16.1z M12.5,16.3c-0.1,0.2-0.2,0.5-0.3,0.7
					c-0.2-0.2-0.4-0.3-0.6-0.4C11.9,16.6,12.2,16.5,12.5,16.3z M9.9,23.4c-1.9,0-3.5-1.6-3.5-3.5c0-1.6,1.1-2.9,2.6-3.4
					c0.7,0.2,1.5,0.3,2.2,0.2c0.3,0.1,0.7,0.4,0.9,0.6c0,0.2-0.1,0.5-0.1,0.7c0,1.1,0.4,2.1,1.1,2.8C12.8,22.4,11.4,23.4,9.9,23.4z
					 M13.4,21.1c0.2,0.2,0.4,0.3,0.6,0.5c-0.3,0-0.6,0.1-0.9,0.2C13.2,21.5,13.3,21.3,13.4,21.1z M17.8,25.3c0,1.9-1.6,3.5-3.5,3.5
					c-0.8,0-1.5-0.2-2.1-0.7c-0.1-0.1-0.2-0.2-0.3-0.1c-0.1,0-0.1,0.2-0.1,0.2c0,0,0,1.9,0,2h-1c0-0.1,0-5,0-5c0-0.7,0.2-1.4,0.6-2
					c0.2-0.1,0.3-0.2,0.5-0.3c0,0,0,0,0,0c0.1-0.1,0.2-0.1,0.2-0.2c0,0,0,0,0,0c0.3-0.2,0.6-0.5,0.8-0.8c0.4-0.2,0.9-0.3,1.4-0.3
					l0.1,0c0,0,0,0,0.1,0c0.4,0.2,0.9,0.3,1.4,0.4C17.1,22.8,17.8,24,17.8,25.3z M16.2,22c-2.1,0-3.9-1.7-3.9-3.9
					c0-0.7,0.2-1.3,0.5-1.9c0.6-0.4,1.1-0.9,1.5-1.5c0.6-0.3,1.2-0.5,1.8-0.5c2.1,0,3.9,1.7,3.9,3.9C20.1,20.2,18.4,22,16.2,22z
					 M16.2,15.4c-1.5,0-2.7,1.2-2.7,2.7c0,1.5,1.2,2.7,2.7,2.7c1.5,0,2.7-1.2,2.7-2.7C18.8,16.6,17.6,15.4,16.2,15.4z M16.2,20.5
					c-1.3,0-2.4-1.1-2.4-2.4c0-1.3,1.1-2.4,2.4-2.4c1.3,0,2.4,1.1,2.4,2.4C18.6,19.4,17.5,20.5,16.2,20.5z M9.8,17.6
					c-1.3,0-2.4,1.1-2.4,2.4c0,1.3,1.1,2.4,2.4,2.4s2.4-1.1,2.4-2.4C12.2,18.6,11.1,17.6,9.8,17.6z M9.8,22.1
					c-1.2,0-2.1-0.9-2.1-2.1c0-1.2,0.9-2.1,2.1-2.1c1.2,0,2.1,0.9,2.1,2.1C11.9,21.1,11,22.1,9.8,22.1z"/>
			</g>
		</g>
		<g>
			<g>
				<g>
					<g>
						<rect x="15.5" y="32.1" class="st1" width="1" height="4.6"/>
						<polygon class="st1" points="21.7,32.1 20,36.3 18.3,32.1 17.3,32.1 19.2,36.8 20.8,36.8 22.7,32.1 						"/>
						<path class="st1" d="M6.8,32.1V36c-0.3,0.1-0.6,0.1-1,0.1c-0.4,0-0.7,0-1,0l0,0c-0.6,0-0.9-0.5-0.9-1.1v-0.2h0v-2.8h-1v3
							c0,1.2,0.8,1.7,1.8,1.8c0.3,0,0.7,0,1.1,0c0.3,0,0.6-0.1,0.8-0.1c0.4-0.1,0.8-0.1,1.2-0.2v-4.4H6.8z"/>
						<path class="st1" d="M10.3,36.8v-3.9c0.3-0.1,0.6-0.1,1-0.1c0.4,0,0.7,0,1,0l0,0c0.6,0,0.9,0.5,0.9,1.1V34h0v2.8h1v-3
							c0-1.2-0.8-1.7-1.8-1.8c-0.3,0-0.7,0-1.1,0c-0.3,0-0.6,0.1-0.8,0.1c-0.4,0.1-0.8,0.1-1.2,0.2v4.4H10.3z"/>
					</g>
				</g>
				<rect x="22" y="35.8" class="st1" width="1" height="1"/>
			</g>
			<g>
				<g>
					<path class="st1" d="M8.7,38.1l-0.4,0c-0.6,0-0.9,0.3-0.9,0.9v0.6c0,0.5,0.3,0.8,0.9,0.9c0,0,0.4,0,0.4,0l0.4,0
						c0.6,0,0.9-0.3,0.9-0.9v-0.6c0-0.5-0.3-0.8-0.9-0.9C9.1,38.1,8.7,38.1,8.7,38.1z M8.7,38.3l0.3,0c0.3,0,0.5,0.2,0.5,0.6l0,0.3
						c0,0,0,0.3,0,0.3c0,0.4-0.2,0.6-0.5,0.6c0,0-0.3,0-0.3,0s-0.3,0-0.3,0c-0.3,0-0.5-0.2-0.5-0.6l0-0.3c0,0,0-0.3,0-0.3
						c0-0.4,0.2-0.6,0.5-0.6C8.4,38.3,8.7,38.3,8.7,38.3z"/>
					<path class="st1" d="M15.6,38.1l-0.4,0c-0.6,0-0.9,0.3-0.9,0.9v0.6c0,0.5,0.3,0.8,0.9,0.9c0,0,0.4,0,0.4,0l0.4,0
						c0.6,0,0.9-0.3,0.9-0.9v-0.6c0-0.5-0.3-0.8-0.9-0.9C16,38.1,15.6,38.1,15.6,38.1z M15.6,38.3l0.3,0c0.3,0,0.5,0.2,0.5,0.6
						l0,0.3c0,0,0,0.3,0,0.3c0,0.4-0.2,0.6-0.5,0.6c0,0-0.3,0-0.3,0s-0.3,0-0.3,0c-0.3,0-0.5-0.2-0.5-0.6l0-0.3c0,0,0-0.3,0-0.3
						c0-0.4,0.2-0.6,0.5-0.6C15.3,38.3,15.6,38.3,15.6,38.3z"/>
					<path class="st1" d="M4.4,38.1l-0.4,0c-0.6,0-0.9,0.3-0.9,0.9v0.6c0,0.5,0.3,0.8,0.9,0.9c0,0,0.4,0,0.4,0l0.4,0
						c0.5,0,0.8-0.3,0.9-0.7c-0.1,0-0.4,0-0.4,0C5.1,40,5,40.1,4.7,40.1l-0.3,0l-0.3,0c-0.3,0-0.5-0.2-0.5-0.6l0-0.3
						c0,0,0-0.3,0-0.3c0-0.4,0.2-0.6,0.5-0.6c0,0,0.3,0,0.3,0l0.3,0c0.3,0,0.4,0.2,0.5,0.4c0.1,0,0.3,0,0.4,0
						c-0.1-0.4-0.4-0.7-0.9-0.7C4.7,38.1,4.4,38.1,4.4,38.1z"/>
					<path class="st1" d="M20.2,38.1c0,0-1.3,0-1.3,0s0,2.1,0,2.2c0.1,0,0.3,0,0.4,0c0-0.1,0-0.8,0-0.8l0.9,0l0.2,0
						c0.4,0,0.6-0.2,0.6-0.5v-0.4c0-0.3-0.2-0.5-0.6-0.5C20.4,38.1,20.2,38.1,20.2,38.1z M19.2,39.3v-1l0.9,0l0.2,0
						c0.2,0,0.3,0.1,0.3,0.3l0,0.1c0,0,0,0.1,0,0.1c0,0.2-0.1,0.3-0.3,0.3l-0.2,0L19.2,39.3z"/>
				</g>
				<rect x="11.7" y="39.1" class="st1" width="1.1" height="0.3"/>
			</g>
		</g>
	</g>
</g>
</svg>
