<?xml version="1.0" encoding="utf-8"?>
<!-- Generator: Adobe Illustrator 24.2.0, SVG Export Plug-In . SVG Version: 6.00 Build 0)  -->
<svg version="1.1" id="レイヤー_1" xmlns="http://www.w3.org/2000/svg" xmlns:xlink="http://www.w3.org/1999/xlink" x="0px"
	 y="0px" viewBox="0 0 56.7 56.7" style="enable-background:new 0 0 56.7 56.7;" xml:space="preserve">
<style type="text/css">
	.st0{fill:#4B4B4B;}
</style>
<g>
	<path class="st0" d="M39.3,38.8c5.5-3.1,8.2-11.6,6.9-15c-5.2-1.5-10.5,0.4-11.8,2c2.1-8.1-3.2-12.7-6.4-13.9
		c-3.3,1.2-8.5,5.8-6.4,13.9c-1.3-1.6-6.6-3.5-11.8-2c-1.3,3.4,1.3,11.9,6.9,15c-2.4,1.3-3.6,4.5-3.8,6.2c2.5,1.8,8.8,2.6,13.8-0.3
		v4h2.8v-4c5,2.9,11.3,2.1,13.8,0.3C42.9,43.3,41.7,40.1,39.3,38.8z"/>
</g>
</svg>
