<?xml version="1.0" encoding="utf-8"?>
<!-- Generator: Adobe Illustrator 24.2.0, SVG Export Plug-In . SVG Version: 6.00 Build 0)  -->
<svg version="1.1" id="レイヤー_1" xmlns="http://www.w3.org/2000/svg" xmlns:xlink="http://www.w3.org/1999/xlink" x="0px"
	 y="0px" viewBox="0 0 56.7 56.7" style="enable-background:new 0 0 56.7 56.7;" xml:space="preserve">
<style type="text/css">
	.st0{fill:#4B4B4B;}
</style>
<g>
	<path class="st0" d="M38.1,24.8c1.3-1.9,2.1-4.2,2.1-6.7c0-6.5-5.3-11.8-11.8-11.8c-6.5,0-11.8,5.3-11.8,11.8
		c0,2.5,0.8,4.8,2.1,6.7c-3,2.7-4.9,6.6-4.9,10.9c0,8.1,6.6,14.6,14.6,14.6c8.1,0,14.6-6.6,14.6-14.6C43,31.4,41.1,27.5,38.1,24.8z
		 M37.1,44.4c-2.2,2.2-5.3,3.6-8.7,3.6c-3.4,0-6.5-1.4-8.7-3.6c-2.2-2.2-3.6-5.3-3.6-8.7c0-4,1.9-7.6,4.9-9.8
		c0.3-0.2,0.4-0.5,0.4-0.8c0-0.3-0.1-0.6-0.3-0.9c-1.4-1.7-2.2-3.8-2.2-6.1c0-2.6,1.1-5,2.8-6.7c1.7-1.7,4.1-2.8,6.7-2.8
		c2.6,0,5,1.1,6.7,2.8c1.7,1.7,2.8,4.1,2.8,6.7c0,2.3-0.8,4.4-2.2,6.1c-0.2,0.2-0.3,0.6-0.3,0.9c0,0.3,0.2,0.6,0.4,0.8
		c3,2.3,4.9,5.8,4.9,9.8C40.7,39.1,39.3,42.2,37.1,44.4z"/>
	<path class="st0" d="M25.4,15.5c0-0.7-0.6-1.3-1.3-1.3c-0.7,0-1.3,0.6-1.3,1.3c0,0.7,0.6,1.3,1.3,1.3
		C24.8,16.8,25.4,16.2,25.4,15.5z"/>
	<path class="st0" d="M32.2,14.2c-0.7,0-1.3,0.6-1.3,1.3c0,0.7,0.6,1.3,1.3,1.3c0.7,0,1.3-0.6,1.3-1.3
		C33.5,14.8,32.9,14.2,32.2,14.2z"/>
	<path class="st0" d="M24.8,19.6C24.8,19.6,24.8,19.6,24.8,19.6C24.8,19.6,24.8,19.6,24.8,19.6L24.8,19.6z"/>
	<path class="st0" d="M27.7,17.8l-2.4,0.9c-0.4,0.1-0.6,0.5-0.5,0.9c0.1,0.4,0.5,0.6,0.8,0.5l2.7-0.4C28.3,19.7,28.9,18.4,27.7,17.8
		z"/>
	<path class="st0" d="M28.1,27.8c-0.8,0-1.4,0.6-1.4,1.4c0,0.8,0.6,1.4,1.4,1.4c0.8,0,1.4-0.6,1.4-1.4
		C29.4,28.4,28.8,27.8,28.1,27.8z"/>
	<path class="st0" d="M28.1,34.3c-0.8,0-1.4,0.6-1.4,1.4c0,0.8,0.6,1.4,1.4,1.4c0.8,0,1.4-0.6,1.4-1.4
		C29.4,34.9,28.8,34.3,28.1,34.3z"/>
	<path class="st0" d="M28.1,40.9c-0.8,0-1.4,0.6-1.4,1.4c0,0.8,0.6,1.4,1.4,1.4c0.8,0,1.4-0.6,1.4-1.4
		C29.4,41.5,28.8,40.9,28.1,40.9z"/>
</g>
</svg>
