<?xml version="1.0" encoding="utf-8"?>
<!-- Generator: Adobe Illustrator 24.2.0, SVG Export Plug-In . SVG Version: 6.00 Build 0)  -->
<svg version="1.1" id="レイヤー_1" xmlns="http://www.w3.org/2000/svg" xmlns:xlink="http://www.w3.org/1999/xlink" x="0px"
	 y="0px" viewBox="0 0 56.7 56.7" style="enable-background:new 0 0 56.7 56.7;" xml:space="preserve">
<style type="text/css">
	.st0{fill:#FFFFFF;}
</style>
<g>
	<path class="st0" d="M35.3,15.4c0-3.1-1.2-5.9-3.3-7.9c-0.2-0.2-0.9-0.4-1.3,0.3s-1.6,2.5-1.6,2.5c-0.1,0.2-0.4,0.4-0.6,0.4
		c-0.3,0-0.5-0.1-0.6-0.4c0,0-1.1-1.8-1.6-2.5C25.9,7,25.2,7.2,25,7.4c-2,2-3.3,4.8-3.3,7.9c0,4.6,2.8,8.6,6.8,10.4
		C32.5,24,35.3,20,35.3,15.4z"/>
	<path class="st0" d="M23.8,29.1c-0.4-4.3-3.4-8.2-7.8-9.6c-2.9-1-6-0.6-8.6,0.7c-0.3,0.1-0.6,0.7-0.1,1.3c0.5,0.6,1.9,2.3,1.9,2.3
		c0.2,0.2,0.2,0.5,0.1,0.7C9.2,24.7,9,24.9,8.8,25c0,0-2,0.5-2.8,0.7s-0.8,0.8-0.7,1.1c1.3,2.6,3.6,4.6,6.5,5.6
		C16.3,33.8,20.9,32.4,23.8,29.1z"/>
	<path class="st0" d="M14.1,39c-1.8,2.5-2.5,5.5-2,8.3c0,0.3,0.5,0.8,1.2,0.5c0.8-0.3,2.7-1.1,2.7-1.1c0.2-0.1,0.5-0.1,0.7,0.1
		c0.2,0.2,0.3,0.4,0.3,0.7c0,0-0.1,2.1-0.2,2.9c-0.1,0.8,0.5,1.1,0.9,1c2.8-0.5,5.5-2,7.3-4.5c2.7-3.7,2.8-8.6,0.6-12.3
		C21.4,33.7,16.8,35.3,14.1,39z"/>
	<path class="st0" d="M31.4,34.6c-2.2,3.8-2.1,8.6,0.6,12.3c1.8,2.5,4.5,4,7.3,4.5c0.3,0.1,0.9-0.2,0.9-1c-0.1-0.8-0.2-2.9-0.2-2.9
		c0-0.3,0.1-0.5,0.3-0.7s0.5-0.2,0.7-0.1c0,0,2,0.8,2.7,1.1c0.8,0.3,1.2-0.2,1.2-0.5c0.4-2.8-0.2-5.8-2-8.3
		C40.2,35.3,35.6,33.7,31.4,34.6z"/>
	<path class="st0" d="M51,25.7c-0.8-0.2-2.8-0.7-2.8-0.7c-0.3-0.1-0.5-0.3-0.5-0.5c-0.1-0.2,0-0.5,0.1-0.7c0,0,1.3-1.6,1.9-2.3
		c0.5-0.6,0.2-1.2-0.1-1.3C47,18.9,44,18.6,41,19.5c-4.4,1.4-7.3,5.3-7.8,9.6c2.9,3.2,7.5,4.7,11.9,3.2c2.9-1,5.2-3,6.5-5.6
		C51.8,26.5,51.8,25.8,51,25.7z"/>
</g>
</svg>
