<?xml version="1.0" encoding="utf-8"?>
<!-- Generator: Adobe Illustrator 24.2.0, SVG Export Plug-In . SVG Version: 6.00 Build 0)  -->
<svg version="1.1" id="レイヤー_1" xmlns="http://www.w3.org/2000/svg" xmlns:xlink="http://www.w3.org/1999/xlink" x="0px"
	 y="0px" viewBox="0 0 56.7 56.7" style="enable-background:new 0 0 56.7 56.7;" xml:space="preserve">
<style type="text/css">
	.st0{fill:#4B4B4B;}
</style>
<g>
	<path class="st0" d="M40.9,10.2c-0.1-0.2-0.3-0.3-0.4-0.5c0,0-0.1-0.1-0.1-0.1c0-0.1-0.1-0.1-0.1-0.1l-0.8-0.8l0,0l0,0l0,0L37,11.2
		l0.4,0.4c0.2,0.2,0.3,0.4,0.6,0.6c0.1,0.1,0.1,0.2,0.2,0.3c6.6,7.9,6.1,19.7-1.2,27c-3.7,3.7-8.9,5.9-14.2,5.9
		c-1.1,0-2.2-0.1-3.3-0.3c-3.5-0.6-6.8-2.1-9.5-4.4c-0.1-0.1-0.2-0.1-0.3-0.2c-0.2-0.2-0.4-0.4-0.6-0.5l-0.4-0.4l-2.1,2.1l-0.4,0.5
		l0.5,0.4C6.8,42.7,7,42.9,7.1,43c0.2,0.2,0.3,0.3,0.5,0.5c4.2,3.6,9.6,5.6,15.2,5.6c0,0,0,0,0,0c1.4,0,2.8-0.1,4.3-0.4
		c4.7-0.9,9.1-3.1,12.5-6.5C48.2,33.5,48.8,19.5,40.9,10.2z"/>
	<path class="st0" d="M22.5,42.2C22.5,42.2,22.5,42.2,22.5,42.2c4.6,0,8.9-1.8,12.1-5c1.1-1.1,2-2.3,2.7-3.5
		c3.6-6.2,3-14.1-1.8-19.7c0,0-0.1-0.1-0.1-0.1c-0.2-0.2-0.3-0.4-0.5-0.5l0,0c0,0,0,0,0,0L11.4,36.8l-0.6,0.6c0,0,0,0,0,0l0,0
		C13.9,40.5,18.1,42.2,22.5,42.2z M17,34.5c0.1-0.1,0.2-0.1,0.4-0.1c0.5,0,1.1,0.3,1.5,0.7c0.3,0.3,0.5,0.6,0.6,0.9
		c0.1,0.3,0,0.6-0.2,0.8c-0.2,0.1-0.3,0.2-0.6,0.2c-0.4,0-0.8-0.2-1.2-0.6c-0.3-0.3-0.5-0.7-0.6-1.1C16.8,35,16.9,34.6,17,34.5z
		 M25.9,29c-0.3,0-0.7-0.2-1.1-0.6c-0.3-0.3-0.5-0.6-0.6-1c-0.1-0.4-0.1-0.7,0.1-0.8c0.1-0.1,0.2-0.1,0.4-0.1c0.4,0,1,0.3,1.4,0.7
		c0.6,0.6,0.7,1.2,0.3,1.6C26.2,28.9,26.1,29,25.9,29z M24.6,35c0.4,0,1,0.3,1.4,0.7c0.3,0.3,0.5,0.6,0.5,0.9c0.1,0.3,0,0.6-0.2,0.8
		c-0.1,0.1-0.3,0.2-0.5,0.2c-0.3,0-0.8-0.2-1.1-0.6c-0.6-0.6-0.8-1.5-0.5-1.8C24.3,35,24.4,35,24.6,35z M31,32.2
		c0.1-0.1,0.2-0.1,0.4-0.1c0.5,0,1.1,0.3,1.5,0.7c0.6,0.6,0.8,1.3,0.3,1.7c-0.2,0.1-0.3,0.2-0.5,0.2c-0.4,0-0.8-0.2-1.2-0.6
		c-0.3-0.3-0.5-0.7-0.6-1.1C30.8,32.7,30.8,32.4,31,32.2z M34.2,21.9c-0.1,0.1-0.3,0.2-0.5,0.2c-0.4,0-0.8-0.2-1.2-0.6
		c-0.6-0.6-0.9-1.6-0.5-1.9c0.1-0.1,0.2-0.1,0.4-0.1c0.5,0,1.1,0.3,1.5,0.7c0.3,0.3,0.5,0.6,0.6,0.9C34.5,21.4,34.4,21.7,34.2,21.9z
		 M33.2,25.3c0.4,0,1.1,0.3,1.5,0.7c0.4,0.4,0.6,0.8,0.6,1.2c0,0.2-0.1,0.3-0.2,0.5c-0.1,0.1-0.3,0.2-0.5,0.2
		c-0.4,0-0.8-0.2-1.2-0.6c-0.4-0.4-0.7-1.1-0.7-1.5c0-0.1,0-0.3,0.1-0.3C33,25.4,33.1,25.3,33.2,25.3z"/>
</g>
</svg>
