<?xml version="1.0" encoding="utf-8"?>
<!-- Generator: Adobe Illustrator 24.2.0, SVG Export Plug-In . SVG Version: 6.00 Build 0)  -->
<svg version="1.1" id="レイヤー_1" xmlns="http://www.w3.org/2000/svg" xmlns:xlink="http://www.w3.org/1999/xlink" x="0px"
	 y="0px" viewBox="0 0 56.7 56.7" style="enable-background:new 0 0 56.7 56.7;" xml:space="preserve">
<style type="text/css">
	.st0{fill:#FFFFFF;}
</style>
<path class="st0" d="M3.2,27.2c0,2.5,1.9,4.4,4.4,4.4s4.4-1.9,4.4-4.4s-1.9-4.4-4.4-4.4C5.1,23.1,3.2,25,3.2,27.2z"/>
<path class="st0" d="M23.9,27.2c0,2.5,1.9,4.4,4.4,4.4s4.4-1.9,4.4-4.4s-1.9-4.4-4.4-4.4C25.8,23.1,23.9,25,23.9,27.2z"/>
<path class="st0" d="M44.9,27.2c0,2.5,1.9,4.4,4.4,4.4s4.4-1.9,4.4-4.4s-1.9-4.4-4.4-4.4C46.8,23.1,44.9,25,44.9,27.2z"/>
</svg>
