<?xml version="1.0" encoding="utf-8"?>
<!-- Generator: Adobe Illustrator 24.2.0, SVG Export Plug-In . SVG Version: 6.00 Build 0)  -->
<svg version="1.1" id="レイヤー_1" xmlns="http://www.w3.org/2000/svg" xmlns:xlink="http://www.w3.org/1999/xlink" x="0px"
	 y="0px" viewBox="0 0 56.7 56.7" style="enable-background:new 0 0 56.7 56.7;" xml:space="preserve">
<style type="text/css">
	.st0{fill:#4B4B4B;}
	.st1{fill:none;stroke:#4B4B4B;stroke-width:2;stroke-miterlimit:10;}
</style>
<g>
	<path class="st0" d="M20.8,47.6c0,1.7,1.3,3,3,3s3-1.3,3-3s-1.3-3-3-3C22.1,44.9,20.8,46.1,20.8,47.6z"/>
	<path class="st0" d="M34.6,47.6c0,1.7,1.3,3,3,3s3-1.3,3-3s-1.3-3-3-3C35.9,44.9,34.6,46.1,34.6,47.6z"/>
	<path class="st0" d="M48.6,47.6c0,1.7,1.3,3,3,3s3-1.3,3-3s-1.3-3-3-3C49.9,44.9,48.6,46.1,48.6,47.6z"/>
</g>
<g>
	<path class="st0" d="M19.7,15.1c1-1.5,1.7-3.4,1.7-5.4c0-5.2-4.3-9.5-9.5-9.5S2.5,4.5,2.5,9.7c0,2,0.6,3.9,1.7,5.4
		c-2.4,2.2-3.9,5.3-3.9,8.8c0,6.5,5.3,11.7,11.7,11.7c6.5,0,11.7-5.3,11.7-11.7C23.7,20.4,22.2,17.2,19.7,15.1z M18.9,30.8
		c-1.8,1.8-4.3,2.9-7,2.9s-5.2-1.1-7-2.9C3.1,29,2,26.5,2,23.8c0-3.2,1.5-6.1,3.9-7.9c0.2-0.2,0.3-0.4,0.3-0.6
		c0-0.2-0.1-0.5-0.2-0.7c-1-1.4-1.7-3.1-1.7-4.9c0-2.1,0.9-4,2.2-5.4C7.9,2.9,9.9,2.1,12,2.1s4,0.9,5.4,2.2s2.2,3.3,2.2,5.4
		c0,1.8-0.6,3.5-1.8,4.9c-0.2,0.2-0.2,0.5-0.2,0.7s0.2,0.5,0.3,0.6c2.4,1.8,3.9,4.7,3.9,7.9C21.8,26.6,20.7,29,18.9,30.8z"/>
	<path class="st0" d="M9.5,7.6c0-0.6-0.5-1-1-1s-1,0.5-1,1s0.5,1,1,1C9.1,8.6,9.5,8.2,9.5,7.6z"/>
	<path class="st0" d="M15,6.6c-0.6,0-1,0.5-1,1s0.5,1,1,1c0.6,0,1-0.5,1-1C16.1,7,15.6,6.6,15,6.6z"/>
	<path class="st0" d="M9.1,10.9L9.1,10.9L9.1,10.9L9.1,10.9z"/>
	<path class="st0" d="M11.4,9.5l-1.9,0.7c-0.3,0.1-0.5,0.4-0.4,0.7s0.4,0.5,0.6,0.4l2.2-0.3C11.9,11,12.4,9.9,11.4,9.5z"/>
	<path class="st0" d="M11.7,17.5c-0.6,0-1.1,0.5-1.1,1.1s0.5,1.1,1.1,1.1s1.1-0.5,1.1-1.1S12.3,17.5,11.7,17.5z"/>
	<path class="st0" d="M11.7,22.7c-0.6,0-1.1,0.5-1.1,1.1s0.5,1.1,1.1,1.1s1.1-0.5,1.1-1.1S12.3,22.7,11.7,22.7z"/>
	<path class="st0" d="M11.7,28c-0.6,0-1.1,0.5-1.1,1.1s0.5,1.1,1.1,1.1s1.1-0.5,1.1-1.1S12.3,28,11.7,28z"/>
</g>
<line class="st1" x1="53.6" y1="4.1" x2="4.1" y2="55.5"/>
</svg>
